<svg width="401" height="58" viewBox="0 0 401 58" fill="none" xmlns="http://www.w3.org/2000/svg">
<path d="M4.75409 46V13.8H18.4621C20.3021 13.8 21.9888 14.26 23.5221 15.18C25.0861 16.0693 26.3281 17.296 27.2481 18.86C28.1681 20.3933 28.6281 22.126 28.6281 24.058C28.6281 25.806 28.1681 27.4313 27.2481 28.934C26.3281 30.4367 25.1014 31.648 23.5681 32.568C22.0348 33.4573 20.3328 33.902 18.4621 33.902H9.72209V46H4.75409ZM23.8901 46L15.7021 31.464L20.8081 30.314L29.9161 46.046L23.8901 46ZM9.72209 29.118H18.9221C19.8114 29.118 20.6088 28.9033 21.3141 28.474C22.0194 28.014 22.5714 27.4007 22.9701 26.634C23.3688 25.8367 23.5681 24.9627 23.5681 24.012C23.5681 22.9387 23.3074 22.0033 22.7861 21.206C22.2954 20.378 21.5901 19.734 20.6701 19.274C19.7808 18.814 18.7688 18.584 17.6341 18.584H9.72209V29.118ZM45.914 46.46C43.43 46.46 41.222 45.9387 39.29 44.896C37.3887 43.8227 35.886 42.366 34.782 40.526C33.7087 38.686 33.172 36.57 33.172 34.178C33.172 32.2767 33.4787 30.544 34.092 28.98C34.7054 27.416 35.5487 26.0667 36.622 24.932C37.726 23.7667 39.0294 22.8773 40.532 22.264C42.0654 21.62 43.7214 21.298 45.5 21.298C47.064 21.298 48.5207 21.6047 49.87 22.218C51.2194 22.8007 52.3847 23.6133 53.366 24.656C54.378 25.6987 55.1447 26.9407 55.666 28.382C56.218 29.7927 56.4787 31.3413 56.448 33.028L56.402 35.052H36.668L35.61 31.28H52.308L51.618 32.062V30.958C51.526 29.946 51.1887 29.0413 50.606 28.244C50.0234 27.4467 49.2874 26.818 48.398 26.358C47.5087 25.898 46.5427 25.668 45.5 25.668C43.844 25.668 42.4487 25.99 41.314 26.634C40.1794 27.2473 39.3207 28.1673 38.738 29.394C38.1554 30.59 37.864 32.0773 37.864 33.856C37.864 35.5427 38.2167 37.0147 38.922 38.272C39.6274 39.4987 40.624 40.4493 41.912 41.124C43.2 41.7987 44.6874 42.136 46.374 42.136C47.57 42.136 48.674 41.9367 49.686 41.538C50.7287 41.1393 51.848 40.4187 53.044 39.376L55.436 42.734C54.7 43.47 53.7954 44.114 52.722 44.666C51.6794 45.218 50.56 45.6627 49.364 46C48.1987 46.3067 47.0487 46.46 45.914 46.46ZM70.8892 46.46C68.8958 46.46 67.0712 45.908 65.4152 44.804C63.7898 43.7 62.4865 42.1973 61.5052 40.296C60.5238 38.3947 60.0332 36.248 60.0332 33.856C60.0332 31.4333 60.5238 29.2867 61.5052 27.416C62.5172 25.5147 63.8665 24.0273 65.5532 22.954C67.2705 21.8807 69.1872 21.344 71.3032 21.344C72.5605 21.344 73.7105 21.528 74.7532 21.896C75.7958 22.264 76.7005 22.7853 77.4672 23.46C78.2645 24.104 78.9085 24.8553 79.3992 25.714C79.9205 26.5727 80.2425 27.4927 80.3652 28.474L79.3072 28.106V21.85H84.0912V46H79.3072V40.25L80.4112 39.928C80.2272 40.756 79.8438 41.5687 79.2612 42.366C78.7092 43.1327 77.9885 43.8227 77.0992 44.436C76.2405 45.0493 75.2745 45.54 74.2012 45.908C73.1585 46.276 72.0545 46.46 70.8892 46.46ZM72.1312 42.09C73.5725 42.09 74.8452 41.7373 75.9492 41.032C77.0532 40.3267 77.9118 39.3607 78.5252 38.134C79.1692 36.8767 79.4912 35.4507 79.4912 33.856C79.4912 32.292 79.1692 30.8967 78.5252 29.67C77.9118 28.4433 77.0532 27.4773 75.9492 26.772C74.8452 26.0667 73.5725 25.714 72.1312 25.714C70.7205 25.714 69.4632 26.0667 68.3592 26.772C67.2858 27.4773 66.4272 28.4433 65.7832 29.67C65.1698 30.8967 64.8632 32.292 64.8632 33.856C64.8632 35.4507 65.1698 36.8767 65.7832 38.134C66.4272 39.3607 67.2858 40.3267 68.3592 41.032C69.4632 41.7373 70.7205 42.09 72.1312 42.09ZM100.781 46.46C98.5725 46.46 96.5945 45.9233 94.8465 44.85C93.1292 43.746 91.7645 42.2587 90.7525 40.388C89.7405 38.4867 89.2345 36.3247 89.2345 33.902C89.2345 31.4793 89.7252 29.3327 90.7065 27.462C91.7185 25.5607 93.0832 24.0733 94.8005 23C96.5179 21.896 98.4652 21.344 100.643 21.344C101.839 21.344 102.989 21.5433 104.093 21.942C105.227 22.31 106.239 22.8313 107.129 23.506C108.018 24.15 108.708 24.8707 109.199 25.668C109.72 26.4347 109.981 27.2167 109.981 28.014L108.601 28.106V11.96H113.339V46H108.601V40.25H109.521C109.521 40.986 109.275 41.722 108.785 42.458C108.294 43.1633 107.635 43.8227 106.807 44.436C106.009 45.0493 105.074 45.54 104.001 45.908C102.958 46.276 101.885 46.46 100.781 46.46ZM101.425 42.366C102.866 42.366 104.139 41.998 105.243 41.262C106.347 40.526 107.205 39.5293 107.819 38.272C108.463 36.984 108.785 35.5273 108.785 33.902C108.785 32.2767 108.463 30.8353 107.819 29.578C107.205 28.29 106.347 27.278 105.243 26.542C104.139 25.806 102.866 25.438 101.425 25.438C99.9832 25.438 98.7105 25.806 97.6065 26.542C96.5025 27.278 95.6285 28.29 94.9845 29.578C94.3712 30.8353 94.0645 32.2767 94.0645 33.902C94.0645 35.5273 94.3712 36.984 94.9845 38.272C95.6285 39.5293 96.5025 40.526 97.6065 41.262C98.7105 41.998 99.9832 42.366 101.425 42.366ZM121.057 46V13.8H125.933L137.663 32.89L135.317 32.844L147.185 13.8H151.785V46H146.817V32.798C146.817 30.038 146.878 27.554 147.001 25.346C147.154 23.138 147.399 20.9453 147.737 18.768L148.381 20.47L137.847 36.754H134.811L124.599 20.654L125.105 18.768C125.442 20.8227 125.672 22.9387 125.795 25.116C125.948 27.2627 126.025 29.8233 126.025 32.798V46H121.057ZM168.909 46.46C166.915 46.46 165.091 45.908 163.435 44.804C161.809 43.7 160.506 42.1973 159.525 40.296C158.543 38.3947 158.053 36.248 158.053 33.856C158.053 31.4333 158.543 29.2867 159.525 27.416C160.537 25.5147 161.886 24.0273 163.573 22.954C165.29 21.8807 167.207 21.344 169.323 21.344C170.58 21.344 171.73 21.528 172.773 21.896C173.815 22.264 174.72 22.7853 175.487 23.46C176.284 24.104 176.928 24.8553 177.419 25.714C177.94 26.5727 178.262 27.4927 178.385 28.474L177.327 28.106V21.85H182.111V46H177.327V40.25L178.431 39.928C178.247 40.756 177.863 41.5687 177.281 42.366C176.729 43.1327 176.008 43.8227 175.119 44.436C174.26 45.0493 173.294 45.54 172.221 45.908C171.178 46.276 170.074 46.46 168.909 46.46ZM170.151 42.09C171.592 42.09 172.865 41.7373 173.969 41.032C175.073 40.3267 175.931 39.3607 176.545 38.134C177.189 36.8767 177.511 35.4507 177.511 33.856C177.511 32.292 177.189 30.8967 176.545 29.67C175.931 28.4433 175.073 27.4773 173.969 26.772C172.865 26.0667 171.592 25.714 170.151 25.714C168.74 25.714 167.483 26.0667 166.379 26.772C165.305 27.4773 164.447 28.4433 163.803 29.67C163.189 30.8967 162.883 32.292 162.883 33.856C162.883 35.4507 163.189 36.8767 163.803 38.134C164.447 39.3607 165.305 40.3267 166.379 41.032C167.483 41.7373 168.74 42.09 170.151 42.09ZM188.726 46V21.85H193.464V26.818L192.636 27.37C192.943 26.2967 193.541 25.3153 194.43 24.426C195.319 23.506 196.377 22.77 197.604 22.218C198.831 21.6353 200.088 21.344 201.376 21.344C203.216 21.344 204.749 21.712 205.976 22.448C207.203 23.1533 208.123 24.242 208.736 25.714C209.349 27.186 209.656 29.0413 209.656 31.28V46H204.918V31.602C204.918 30.222 204.734 29.0873 204.366 28.198C203.998 27.278 203.431 26.6187 202.664 26.22C201.897 25.7907 200.947 25.6067 199.812 25.668C198.892 25.668 198.049 25.8213 197.282 26.128C196.515 26.404 195.841 26.8027 195.258 27.324C194.706 27.8453 194.261 28.4587 193.924 29.164C193.617 29.8387 193.464 30.5747 193.464 31.372V46H191.118C190.719 46 190.321 46 189.922 46C189.523 46 189.125 46 188.726 46ZM226.893 56.58C225.176 56.58 223.459 56.304 221.741 55.752C220.055 55.2307 218.69 54.5407 217.647 53.682L219.395 50.002C220.009 50.462 220.729 50.8607 221.557 51.198C222.385 51.566 223.259 51.842 224.179 52.026C225.099 52.2407 226.004 52.348 226.893 52.348C228.58 52.348 229.991 52.072 231.125 51.52C232.26 50.968 233.119 50.1553 233.701 49.082C234.284 48.0087 234.575 46.6747 234.575 45.08V40.434L235.081 40.756C234.928 41.7067 234.422 42.6267 233.563 43.516C232.735 44.3747 231.693 45.08 230.435 45.632C229.178 46.184 227.89 46.46 226.571 46.46C224.271 46.46 222.217 45.9233 220.407 44.85C218.629 43.746 217.218 42.2587 216.175 40.388C215.133 38.4867 214.611 36.3247 214.611 33.902C214.611 31.4793 215.117 29.3327 216.129 27.462C217.172 25.5607 218.583 24.0733 220.361 23C222.171 21.896 224.195 21.344 226.433 21.344C227.353 21.344 228.243 21.4667 229.101 21.712C229.96 21.9267 230.757 22.2487 231.493 22.678C232.229 23.0767 232.889 23.5213 233.471 24.012C234.054 24.5027 234.529 25.024 234.897 25.576C235.265 26.128 235.495 26.6493 235.587 27.14L234.575 27.508V21.85H239.313V44.528C239.313 46.46 239.022 48.162 238.439 49.634C237.887 51.1367 237.075 52.394 236.001 53.406C234.928 54.4487 233.625 55.2307 232.091 55.752C230.558 56.304 228.825 56.58 226.893 56.58ZM227.077 42.09C228.58 42.09 229.914 41.7373 231.079 41.032C232.245 40.3267 233.149 39.3607 233.793 38.134C234.437 36.9073 234.759 35.4967 234.759 33.902C234.759 32.3073 234.422 30.8967 233.747 29.67C233.103 28.4127 232.199 27.4313 231.033 26.726C229.899 26.0207 228.58 25.668 227.077 25.668C225.605 25.668 224.287 26.036 223.121 26.772C221.987 27.4773 221.082 28.4587 220.407 29.716C219.763 30.9427 219.441 32.338 219.441 33.902C219.441 35.466 219.763 36.8767 220.407 38.134C221.082 39.3607 221.987 40.3267 223.121 41.032C224.287 41.7373 225.605 42.09 227.077 42.09ZM255.249 46.46C253.255 46.46 251.431 45.908 249.775 44.804C248.149 43.7 246.846 42.1973 245.865 40.296C244.883 38.3947 244.393 36.248 244.393 33.856C244.393 31.4333 244.883 29.2867 245.865 27.416C246.877 25.5147 248.226 24.0273 249.913 22.954C251.63 21.8807 253.547 21.344 255.663 21.344C256.92 21.344 258.07 21.528 259.113 21.896C260.155 22.264 261.06 22.7853 261.827 23.46C262.624 24.104 263.268 24.8553 263.759 25.714C264.28 26.5727 264.602 27.4927 264.725 28.474L263.667 28.106V21.85H268.451V46H263.667V40.25L264.771 39.928C264.587 40.756 264.203 41.5687 263.621 42.366C263.069 43.1327 262.348 43.8227 261.459 44.436C260.6 45.0493 259.634 45.54 258.561 45.908C257.518 46.276 256.414 46.46 255.249 46.46ZM256.491 42.09C257.932 42.09 259.205 41.7373 260.309 41.032C261.413 40.3267 262.271 39.3607 262.885 38.134C263.529 36.8767 263.851 35.4507 263.851 33.856C263.851 32.292 263.529 30.8967 262.885 29.67C262.271 28.4433 261.413 27.4773 260.309 26.772C259.205 26.0667 257.932 25.714 256.491 25.714C255.08 25.714 253.823 26.0667 252.719 26.772C251.645 27.4773 250.787 28.4433 250.143 29.67C249.529 30.8967 249.223 32.292 249.223 33.856C249.223 35.4507 249.529 36.8767 250.143 38.134C250.787 39.3607 251.645 40.3267 252.719 41.032C253.823 41.7373 255.08 42.09 256.491 42.09Z" fill="white"/>
<path d="M277.304 46.506C276.292 46.506 275.51 46.2147 274.958 45.632C274.406 45.0187 274.13 44.16 274.13 43.056C274.13 42.044 274.421 41.216 275.004 40.572C275.586 39.928 276.353 39.606 277.304 39.606C278.316 39.606 279.098 39.9127 279.65 40.526C280.202 41.1087 280.478 41.952 280.478 43.056C280.478 44.068 280.186 44.896 279.604 45.54C279.021 46.184 278.254 46.506 277.304 46.506ZM299.2 46.46C296.961 46.46 294.907 46.0613 293.036 45.264C291.165 44.4667 289.54 43.332 288.16 41.86C286.78 40.3573 285.707 38.594 284.94 36.57C284.204 34.546 283.836 32.3227 283.836 29.9C283.836 27.6 284.235 25.4687 285.032 23.506C285.86 21.5127 286.995 19.7647 288.436 18.262C289.877 16.7593 291.549 15.594 293.45 14.766C295.351 13.938 297.406 13.524 299.614 13.524C301.178 13.524 302.696 13.7693 304.168 14.26C305.671 14.72 307.02 15.3793 308.216 16.238C309.443 17.066 310.439 18.0167 311.206 19.09L307.894 22.54C307.005 21.6507 306.1 20.9147 305.18 20.332C304.291 19.7187 303.371 19.2587 302.42 18.952C301.5 18.6453 300.565 18.492 299.614 18.492C298.111 18.492 296.701 18.7833 295.382 19.366C294.094 19.918 292.959 20.7 291.978 21.712C291.027 22.724 290.276 23.9353 289.724 25.346C289.172 26.726 288.896 28.244 288.896 29.9C288.896 31.648 289.157 33.2427 289.678 34.684C290.23 36.0947 290.997 37.306 291.978 38.318C292.959 39.33 294.125 40.112 295.474 40.664C296.854 41.1853 298.372 41.446 300.028 41.446C301.04 41.446 302.037 41.308 303.018 41.032C303.999 40.756 304.919 40.3573 305.778 39.836C306.637 39.3147 307.419 38.7013 308.124 37.996L310.608 42.044C309.903 42.872 308.937 43.6233 307.71 44.298C306.514 44.9727 305.165 45.5093 303.662 45.908C302.19 46.276 300.703 46.46 299.2 46.46ZM327.017 46.46C324.655 46.46 322.539 45.9233 320.669 44.85C318.829 43.746 317.372 42.2587 316.299 40.388C315.225 38.4867 314.689 36.3247 314.689 33.902C314.689 31.4793 315.225 29.3327 316.299 27.462C317.372 25.5607 318.829 24.0733 320.669 23C322.539 21.896 324.655 21.344 327.017 21.344C329.347 21.344 331.433 21.896 333.273 23C335.143 24.0733 336.615 25.5607 337.689 27.462C338.762 29.3327 339.299 31.4793 339.299 33.902C339.299 36.3247 338.762 38.4867 337.689 40.388C336.615 42.2587 335.143 43.746 333.273 44.85C331.433 45.9233 329.347 46.46 327.017 46.46ZM327.017 42.136C328.458 42.136 329.746 41.7833 330.881 41.078C332.015 40.342 332.905 39.3607 333.549 38.134C334.193 36.8767 334.499 35.466 334.469 33.902C334.499 32.3073 334.193 30.8967 333.549 29.67C332.905 28.4127 332.015 27.4313 330.881 26.726C329.746 26.0207 328.458 25.668 327.017 25.668C325.575 25.668 324.272 26.036 323.107 26.772C321.972 27.4773 321.083 28.4587 320.439 29.716C319.795 30.9427 319.488 32.338 319.519 33.902C319.488 35.466 319.795 36.8767 320.439 38.134C321.083 39.3607 321.972 40.342 323.107 41.078C324.272 41.7833 325.575 42.136 327.017 42.136ZM346.393 46.506C345.381 46.506 344.599 46.2147 344.047 45.632C343.495 45.0187 343.219 44.16 343.219 43.056C343.219 42.044 343.511 41.216 344.093 40.572C344.676 39.928 345.443 39.606 346.393 39.606C347.405 39.606 348.187 39.9127 348.739 40.526C349.291 41.1087 349.567 41.952 349.567 43.056C349.567 44.068 349.276 44.896 348.693 45.54C348.111 46.184 347.344 46.506 346.393 46.506ZM354.928 46V41.4H360.126V18.4H354.928V13.8H370.292V18.4H365.094V41.4H370.292V46H354.928ZM376.895 46V21.85H381.633V26.818L380.805 27.37C381.112 26.2967 381.71 25.3153 382.599 24.426C383.488 23.506 384.546 22.77 385.773 22.218C387 21.6353 388.257 21.344 389.545 21.344C391.385 21.344 392.918 21.712 394.145 22.448C395.372 23.1533 396.292 24.242 396.905 25.714C397.518 27.186 397.825 29.0413 397.825 31.28V46H393.087V31.602C393.087 30.222 392.903 29.0873 392.535 28.198C392.167 27.278 391.6 26.6187 390.833 26.22C390.066 25.7907 389.116 25.6067 387.981 25.668C387.061 25.668 386.218 25.8213 385.451 26.128C384.684 26.404 384.01 26.8027 383.427 27.324C382.875 27.8453 382.43 28.4587 382.093 29.164C381.786 29.8387 381.633 30.5747 381.633 31.372V46H379.287C378.888 46 378.49 46 378.091 46C377.692 46 377.294 46 376.895 46Z" fill="#E33353"/>
</svg>
